# xmcd
#
# Track frame offsets: 
#        150
#        15557
#        36138
#        67964
#        98892
#        126090
#        137322
#        169092
#        200086
#        234101
#        260414
#
# Disc length: 3979 seconds
#
# Revision: 1
# Processed by: cddbd v1.5.2PL0 Copyright (c) Steve Scherf et al.
# Submitted via: ExactAudioCopy v0.99pb4
#
DISCID=890f890b
DTITLE=John Mayall - Exclusive Live Rarities
DYEAR=2006
DGENRE=Blues
TTITLE0=Hideaway
TTITLE1=Tears In My Eyes
TTITLE2=The Stumble
TTITLE3=Double Trouble
TTITLE4=Help Me
TTITLE5=French Toast
TTITLE6=Broken Wings
TTITLE7=Racehorse Man
TTITLE8=Tears Came Rollin' Down
TTITLE9=Undercover Agent For The Blues
TTITLE10=Mail Order Mystics
EXTD=Essentially John Mayall [Special Edition] 5 cd box\ncd 5 "Exclusi
EXTD=ve Live Rarities"
EXTT0=
EXTT1=
EXTT2=
EXTT3=
EXTT4=
EXTT5=
EXTT6=
EXTT7=
EXTT8=
EXTT9=
EXTT10=
PLAYORDER=
